<svg xmlns="http://www.w3.org/2000/svg" version="1.1" xmlns:xlink="http://www.w3.org/1999/xlink" xmlns:svgjs="http://svgjs.dev/svgjs" width="1500" height="1500" viewBox="0 0 1500 1500"><rect width="1500" height="1500" fill="#000000"></rect><g transform="matrix(0.6666666666666666,0,0,0.6666666666666666,249.3947603891744,666.8420667106064)"><svg viewBox="0 0 396 66" data-background-color="#ffffff" preserveAspectRatio="xMidYMid meet" height="250" width="1500" xmlns="http://www.w3.org/2000/svg" xmlns:xlink="http://www.w3.org/1999/xlink"><g id="tight-bounds" transform="matrix(1,0,0,1,0.24032511411306245,-0.06945841740019887)"><svg viewBox="0 0 395.5199999999999 66.13891683480038" height="66.13891683480038" width="395.5199999999999"><g><svg viewBox="0 0 517.1848919096432 86.48373926533961" height="66.13891683480038" width="395.5199999999999"><g><rect width="5.643410172335201" height="75.09441904371022" x="101.24815667883884" y="5.694660110814695" fill="#ffffff" opacity="1" stroke-width="0" stroke="transparent" fill-opacity="1" class="rect-qz-0" data-fill-palette-color="primary" rx="1%" id="qz-0" data-palette-color="#1ebbd7"></rect></g><g transform="matrix(1,0,0,1,121.66489190964315,11.952528364457212)"><svg viewBox="0 0 395.52 62.578682536425184" height="62.578682536425184" width="395.52"><g id="textblocktransform"><svg viewBox="0 0 395.52 62.578682536425184" height="62.578682536425184" width="395.52" id="textblock"><g><svg viewBox="0 0 395.52 62.578682536425184" height="62.578682536425184" width="395.52"><g transform="matrix(1,0,0,1,0,0)"><svg width="395.52" viewBox="2.5 -37.75 243.63 38.55" height="62.578682536425184" data-palette-color="#1ebbd7"><path d="M29.15 0L2.5 0 2.5-3.3Q3.65-3.35 4.42-3.6 5.2-3.85 5.63-4.75 6.05-5.65 6.05-7.65L6.05-7.65 6.05-26.8Q6.05-28.15 6.13-29.4 6.2-30.65 6.25-31.3L6.25-31.3Q5.45-31.25 4.25-31.23 3.05-31.2 2.5-31.15L2.5-31.15 2.5-35 16.85-35 16.85-31.7Q15.75-31.65 14.95-31.4 14.15-31.15 13.73-30.28 13.3-29.4 13.3-27.35L13.3-27.35 13.3-8.2Q13.3-6.85 13.25-5.65 13.2-4.45 13.1-3.8L13.1-3.8 19.8-3.8Q22.75-3.8 24.43-5.85 26.1-7.9 26.1-12L26.1-12 29.45-12 29.15 0ZM32.25 0L32.25-3.25Q33.65-3.25 34.25-3.8 34.85-4.35 35.02-5.38 35.2-6.4 35.2-7.7L35.2-7.7 35.2-16Q35.2-16.9 35.25-18.07 35.3-19.25 35.4-20.35L35.4-20.35Q34.6-20.3 33.52-20.28 32.45-20.25 31.9-20.2L31.9-20.2 31.9-24Q34.2-24 35.8-24.25 37.4-24.5 38.32-24.85 39.25-25.2 39.6-25.5L39.6-25.5 42.3-25.5 42.3-8.05Q42.3-7.35 42.25-6.08 42.2-4.8 42.1-3.65L42.1-3.65Q42.9-3.75 43.87-3.78 44.85-3.8 45.35-3.8L45.35-3.8 45.35 0 32.25 0ZM38.5-29.45L38.5-29.45Q36.8-29.45 35.7-30.65 34.6-31.85 34.6-33.55L34.6-33.55Q34.6-35.25 35.75-36.45 36.9-37.65 38.45-37.65L38.45-37.65Q40.05-37.65 41.12-36.45 42.2-35.25 42.2-33.55L42.2-33.55Q42.2-31.85 41.2-30.65 40.2-29.45 38.5-29.45ZM51.7-25L51.7-26.45Q51.7-32.5 54.34-35.13 57-37.75 61.5-37.75L61.5-37.75Q63.84-37.75 65.25-37.08 66.65-36.4 67.25-35.4 67.84-34.4 67.84-33.35L67.84-33.35Q67.84-32.05 67.05-31.05 66.25-30.05 64.75-30L64.75-30Q63.3-29.95 62.5-30.78 61.7-31.6 61.7-32.85L61.7-32.85Q61.7-33.1 61.72-33.35 61.75-33.6 61.8-33.85L61.8-33.85Q61.55-34.1 61.22-34.18 60.9-34.25 60.65-34.25L60.65-34.25Q59.84-34.25 59.4-33.77 58.95-33.3 58.8-32.6 58.65-31.9 58.65-31.15L58.65-31.15 58.65-25 64.25-25 64.25-21.15 58.7-21 58.75-8.15Q58.75-7.45 58.7-6.13 58.65-4.8 58.55-3.65L58.55-3.65Q59.4-3.75 60.47-3.78 61.55-3.8 62.05-3.8L62.05-3.8 62.05 0 48.7 0 48.7-3.25Q50.09-3.25 50.72-3.8 51.34-4.35 51.52-5.38 51.7-6.4 51.7-7.7L51.7-7.7 51.7-20.9 48.05-20.85 48.05-25 51.7-25ZM78.59 0.8L78.59 0.8Q74.94 0.8 72.14-0.83 69.34-2.45 67.79-5.43 66.24-8.4 66.24-12.45L66.24-12.45Q66.24-15.95 67.79-19 69.34-22.05 72.17-23.93 74.99-25.8 78.74-25.8L78.74-25.8Q80.84-25.8 82.84-25.23 84.84-24.65 86.47-23.25 88.09-21.85 89.07-19.45 90.04-17.05 89.99-13.45L89.99-13.45 73.59-13.15Q73.59-10.45 74.27-8.3 74.94-6.15 76.49-4.9 78.04-3.65 80.64-3.65L80.64-3.65Q81.64-3.65 82.92-4 84.19-4.35 85.52-5.18 86.84-6 87.99-7.4L87.99-7.4 90.24-5.3Q88.44-2.75 86.39-1.43 84.34-0.1 82.32 0.35 80.29 0.8 78.59 0.8ZM73.89-16.65L73.89-16.65 83.09-16.65Q83.04-18.75 82.52-19.98 81.99-21.2 81.09-21.75 80.19-22.3 78.99-22.3L78.99-22.3Q76.79-22.3 75.54-20.73 74.29-19.15 73.89-16.65ZM136.29-23.8L133.04-23.8Q132.39-27.95 130.26-30.05 128.14-32.15 124.64-32.2L124.64-32.2Q122.04-32.2 120.09-31 118.14-29.8 116.86-27.8 115.59-25.8 114.96-23.25 114.34-20.7 114.34-18L114.34-18Q114.34-13.7 115.56-10.38 116.79-7.05 119.14-5.15 121.49-3.25 124.84-3.25L124.84-3.25Q127.99-3.25 131.09-4.88 134.19-6.5 136.29-9.4L136.29-9.4 138.69-7.2Q136.24-3.85 133.54-2.13 130.84-0.4 128.26 0.2 125.69 0.8 123.64 0.8L123.64 0.8Q119.79 0.8 116.64-0.58 113.49-1.95 111.21-4.38 108.94-6.8 107.71-10.03 106.49-13.25 106.49-17L106.49-17Q106.49-20.4 107.59-23.75 108.69-27.1 110.86-29.83 113.04-32.55 116.34-34.18 119.64-35.8 123.99-35.8L123.99-35.8Q125.94-35.8 128.26-35.18 130.59-34.55 132.64-33.35L132.64-33.35 132.44-35.45 136.29-35.45 136.29-23.8ZM141.19 0L141.19-3.25Q142.59-3.25 143.19-3.8 143.79-4.35 143.96-5.38 144.14-6.4 144.14-7.7L144.14-7.7 144.14-16Q144.14-16.9 144.19-18.07 144.24-19.25 144.34-20.35L144.34-20.35Q143.54-20.3 142.46-20.28 141.39-20.25 140.84-20.2L140.84-20.2 140.84-24Q143.14-24 144.74-24.25 146.34-24.5 147.26-24.85 148.19-25.2 148.54-25.5L148.54-25.5 151.24-25.5 151.24-8.05Q151.24-7.35 151.19-6.08 151.14-4.8 151.04-3.65L151.04-3.65Q151.84-3.75 152.81-3.78 153.79-3.8 154.29-3.8L154.29-3.8 154.29 0 141.19 0ZM147.44-29.45L147.44-29.45Q145.74-29.45 144.64-30.65 143.54-31.85 143.54-33.55L143.54-33.55Q143.54-35.25 144.69-36.45 145.84-37.65 147.39-37.65L147.39-37.65Q148.99-37.65 150.06-36.45 151.14-35.25 151.14-33.55L151.14-33.55Q151.14-31.85 150.14-30.65 149.14-29.45 147.44-29.45ZM157.53 0L157.53-3.25Q158.93-3.25 159.53-3.8 160.13-4.35 160.31-5.38 160.48-6.4 160.48-7.7L160.48-7.7 160.48-16.1Q160.48-17 160.53-18.13 160.58-19.25 160.68-20.35L160.68-20.35Q159.88-20.3 158.81-20.28 157.73-20.25 157.18-20.2L157.18-20.2 157.18-24 159.18-24Q161.13-24 162.76-24.5 164.38-25 164.88-25.5L164.88-25.5 167.33-25.5Q167.43-25 167.48-23.63 167.53-22.25 167.53-21.2L167.53-21.2Q168.88-22.85 170.08-23.85 171.28-24.85 172.46-25.33 173.63-25.8 174.83-25.8L174.83-25.8Q176.58-25.8 177.88-24.83 179.18-23.85 179.18-21.65L179.18-21.65Q179.18-20.9 178.83-20.08 178.48-19.25 177.73-18.7 176.98-18.15 175.68-18.15L175.68-18.15Q174.68-18.15 173.63-18.75 172.58-19.35 172.43-21.05L172.43-21.05Q171.43-21.05 170.43-20.23 169.43-19.4 168.66-18.28 167.88-17.15 167.58-16.2L167.58-16.2 167.58-8.05Q167.58-7.35 167.53-6.08 167.48-4.8 167.38-3.65L167.38-3.65Q168.18-3.75 169.16-3.78 170.13-3.8 170.63-3.8L170.63-3.8 170.63 0 157.53 0ZM192.93 0.8L192.93 0.8Q189.58 0.8 186.78-0.7 183.98-2.2 182.31-5.05 180.63-7.9 180.63-11.95L180.63-11.95Q180.63-14.8 181.58-17.3 182.53-19.8 184.26-21.7 185.98-23.6 188.36-24.7 190.73-25.8 193.63-25.8L193.63-25.8Q196.83-25.8 198.96-24.83 201.08-23.85 202.16-22.28 203.23-20.7 203.23-18.95L203.23-18.95Q203.23-17.5 202.36-16.38 201.48-15.25 199.88-15.2L199.88-15.2Q197.98-15.15 197.23-16.28 196.48-17.4 196.48-18.45L196.48-18.45Q196.48-18.9 196.63-19.53 196.78-20.15 197.08-20.65L197.08-20.65Q196.73-21.4 196.03-21.75 195.33-22.1 194.61-22.23 193.88-22.35 193.43-22.3L193.43-22.3Q191.03-22.15 189.48-19.9 187.93-17.65 187.93-13.4L187.93-13.4Q187.93-10.9 188.56-8.72 189.18-6.55 190.63-5.15 192.08-3.75 194.53-3.65L194.53-3.65Q196.63-3.6 198.63-4.65 200.63-5.7 202.03-7.5L202.03-7.5 204.33-5.25Q202.53-2.75 200.58-1.45 198.63-0.15 196.71 0.33 194.78 0.8 192.93 0.8ZM206.23 0L206.23-3.25Q207.63-3.25 208.25-3.8 208.88-4.35 209.03-5.38 209.18-6.4 209.18-7.7L209.18-7.7 209.18-28.25Q209.18-29.15 209.23-30.33 209.28-31.5 209.38-32.6L209.38-32.6Q208.58-32.55 207.5-32.52 206.43-32.5 205.88-32.45L205.88-32.45 205.88-36.25Q208.23-36.25 209.8-36.5 211.38-36.75 212.3-37.1 213.23-37.45 213.58-37.75L213.58-37.75 216.28-37.75 216.28-8.05Q216.28-7.35 216.23-6.08 216.18-4.8 216.08-3.65L216.08-3.65Q216.93-3.75 217.88-3.78 218.83-3.8 219.33-3.8L219.33-3.8 219.33 0 206.23 0ZM234.48 0.8L234.48 0.8Q230.83 0.8 228.03-0.83 225.23-2.45 223.68-5.43 222.13-8.4 222.13-12.45L222.13-12.45Q222.13-15.95 223.68-19 225.23-22.05 228.05-23.93 230.88-25.8 234.63-25.8L234.63-25.8Q236.73-25.8 238.73-25.23 240.73-24.65 242.35-23.25 243.98-21.85 244.95-19.45 245.93-17.05 245.88-13.45L245.88-13.45 229.48-13.15Q229.48-10.45 230.15-8.3 230.83-6.15 232.38-4.9 233.93-3.65 236.53-3.65L236.53-3.65Q237.53-3.65 238.8-4 240.08-4.35 241.4-5.18 242.73-6 243.88-7.4L243.88-7.4 246.13-5.3Q244.33-2.75 242.28-1.43 240.23-0.1 238.2 0.35 236.18 0.8 234.48 0.8ZM229.78-16.65L229.78-16.65 238.98-16.65Q238.93-18.75 238.4-19.98 237.88-21.2 236.98-21.75 236.08-22.3 234.88-22.3L234.88-22.3Q232.68-22.3 231.43-20.73 230.18-19.15 229.78-16.65Z" opacity="1" transform="matrix(1,0,0,1,0,0)" fill="#ffffff" class="wordmark-text-0" data-fill-palette-color="primary" id="text-0"></path></svg></g></svg></g></svg></g></svg></g><g><svg viewBox="0 0 86.47483162036973 86.48373926533961" height="86.48373926533961" width="86.47483162036973"><g><svg xmlns="http://www.w3.org/2000/svg" xmlns:xlink="http://www.w3.org/1999/xlink" version="1.1" x="0" y="0" viewBox="2.0024719 2 47.9950561 48" style="enable-background:new 0 0 52 52;" xml:space="preserve" height="86.48373926533961" width="86.47483162036973" class="icon-icon-0" data-fill-palette-color="accent" id="icon-0"><g fill="#1ebbd7" data-fill-palette-color="accent"><path d="M16.99 31.475l1.768-5.224c0.401-1.188 1.517-2.009 2.775-2.038 0 0 0.001 0 0.002 0 1.299 0 2.422 0.771 2.864 1.918l0.252 0.651 1.757-5.349c0.408-1.237 1.532-2.067 2.8-2.067h0.108l0.095 0.008c1.313 0.067 2.445 0.999 2.76 2.279l2.719 11.033h9.168c3.217-4.214 5.94-8.833 5.94-14.976C49.998 9.05 44.248 2 37.178 2c-3.93 0-8.39 4.81-10.08 6.82C25.408 6.81 20.948 2 17.017 2 9.948 2 4.188 9.05 4.188 17.71c0 5.561 2.232 9.872 5.041 13.765H16.99z" fill="#ffffff" data-fill-palette-color="accent"></path><path d="M29.626 36.402l-0.78-3.167-1.113 3.388c-0.394 1.199-1.507 2.027-2.769 2.062-0.001 0-0.001 0-0.002 0-1.311 0-2.434-0.77-2.877-1.915l-0.324-0.834c-0.522 0.938-1.519 1.539-2.62 1.539h-5.171c6.305 7.84 12.208 12.155 12.458 12.335C26.608 49.94 26.808 50 27.017 50c0.2 0 0.4-0.06 0.57-0.18 0.246-0.17 5.698-4.055 11.64-11.134h-6.687C31.154 38.686 29.956 37.747 29.626 36.402z" fill="#ffffff" data-fill-palette-color="accent"></path><path d="M46.761 34.686H33.323l-3.094-12.556c-0.106-0.433-0.487-0.743-0.933-0.759-0.438-0.048-0.849 0.263-0.988 0.686l-3.503 10.661-2.272-5.867c-0.151-0.393-0.549-0.649-0.954-0.639-0.421 0.01-0.791 0.28-0.926 0.68l-2.229 6.583H3.002c-0.553 0-1 0.447-1 1s0.447 1 1 1h16.139c0.429 0 0.81-0.273 0.947-0.68l1.576-4.651 2.286 5.903c0.149 0.386 0.521 0.639 0.932 0.639 0.009 0 0.018 0 0.027 0 0.422-0.012 0.792-0.286 0.924-0.687l3.288-10.007 2.448 9.933c0.109 0.446 0.511 0.761 0.971 0.761H46.761c0.553 0 1-0.447 1-1S47.314 34.686 46.761 34.686z" fill="#ffffff" data-fill-palette-color="accent"></path></g></svg></g></svg></g></svg></g><defs></defs></svg><rect width="395.5199999999999" height="66.13891683480038" fill="none" stroke="none" visibility="hidden"></rect></g></svg></g></svg>