<svg xmlns="http://www.w3.org/2000/svg" version="1.1" xmlns:xlink="http://www.w3.org/1999/xlink" xmlns:svgjs="http://svgjs.dev/svgjs" width="1500" height="1500" viewBox="0 0 1500 1500"><rect width="1500" height="1500" fill="#000000"></rect><g transform="matrix(0.6666666666666666,0,0,0.6666666666666666,249.39510416594896,631.1229922020511)"><svg viewBox="0 0 396 94" data-background-color="#ffffff" preserveAspectRatio="xMidYMid meet" height="356" width="1500" xmlns="http://www.w3.org/2000/svg" xmlns:xlink="http://www.w3.org/1999/xlink"><g id="tight-bounds" transform="matrix(1,0,0,1,0.2404612497157359,0.08330926828875818)"><svg viewBox="0 0 395.52 93.83338146342246" height="93.83338146342246" width="395.52"><g><svg viewBox="0 0 564.6554251526007 133.9591623779707" height="93.83338146342246" width="395.52"><g><rect width="5.643410172335201" height="116.31765184773141" x="148.71868992179645" y="8.820755265119644" fill="#ffffff" opacity="1" stroke-width="0" stroke="transparent" fill-opacity="1" class="rect-qz-0" data-fill-palette-color="primary" rx="1%" id="qz-0" data-palette-color="#1ebbd7"></rect></g><g transform="matrix(1,0,0,1,169.13542515260076,18.51389291909726)"><svg viewBox="0 0 395.52 96.93137653977618" height="96.93137653977618" width="395.52"><g id="textblocktransform"><svg viewBox="0 0 395.52 96.93137653977618" height="96.93137653977618" width="395.52" id="textblock"><g><svg viewBox="0 0 395.52 62.578682536425184" height="62.578682536425184" width="395.52"><g transform="matrix(1,0,0,1,0,0)"><svg width="395.52" viewBox="2.5 -37.75 243.63 38.55" height="62.578682536425184" data-palette-color="#1ebbd7"><path d="M29.15 0L2.5 0 2.5-3.3Q3.65-3.35 4.42-3.6 5.2-3.85 5.63-4.75 6.05-5.65 6.05-7.65L6.05-7.65 6.05-26.8Q6.05-28.15 6.13-29.4 6.2-30.65 6.25-31.3L6.25-31.3Q5.45-31.25 4.25-31.23 3.05-31.2 2.5-31.15L2.5-31.15 2.5-35 16.85-35 16.85-31.7Q15.75-31.65 14.95-31.4 14.15-31.15 13.73-30.28 13.3-29.4 13.3-27.35L13.3-27.35 13.3-8.2Q13.3-6.85 13.25-5.65 13.2-4.45 13.1-3.8L13.1-3.8 19.8-3.8Q22.75-3.8 24.43-5.85 26.1-7.9 26.1-12L26.1-12 29.45-12 29.15 0ZM32.25 0L32.25-3.25Q33.65-3.25 34.25-3.8 34.85-4.35 35.02-5.38 35.2-6.4 35.2-7.7L35.2-7.7 35.2-16Q35.2-16.9 35.25-18.07 35.3-19.25 35.4-20.35L35.4-20.35Q34.6-20.3 33.52-20.28 32.45-20.25 31.9-20.2L31.9-20.2 31.9-24Q34.2-24 35.8-24.25 37.4-24.5 38.32-24.85 39.25-25.2 39.6-25.5L39.6-25.5 42.3-25.5 42.3-8.05Q42.3-7.35 42.25-6.08 42.2-4.8 42.1-3.65L42.1-3.65Q42.9-3.75 43.87-3.78 44.85-3.8 45.35-3.8L45.35-3.8 45.35 0 32.25 0ZM38.5-29.45L38.5-29.45Q36.8-29.45 35.7-30.65 34.6-31.85 34.6-33.55L34.6-33.55Q34.6-35.25 35.75-36.45 36.9-37.65 38.45-37.65L38.45-37.65Q40.05-37.65 41.12-36.45 42.2-35.25 42.2-33.55L42.2-33.55Q42.2-31.85 41.2-30.65 40.2-29.45 38.5-29.45ZM51.7-25L51.7-26.45Q51.7-32.5 54.34-35.13 57-37.75 61.5-37.75L61.5-37.75Q63.84-37.75 65.25-37.08 66.65-36.4 67.25-35.4 67.84-34.4 67.84-33.35L67.84-33.35Q67.84-32.05 67.05-31.05 66.25-30.05 64.75-30L64.75-30Q63.3-29.95 62.5-30.78 61.7-31.6 61.7-32.85L61.7-32.85Q61.7-33.1 61.72-33.35 61.75-33.6 61.8-33.85L61.8-33.85Q61.55-34.1 61.22-34.18 60.9-34.25 60.65-34.25L60.65-34.25Q59.84-34.25 59.4-33.77 58.95-33.3 58.8-32.6 58.65-31.9 58.65-31.15L58.65-31.15 58.65-25 64.25-25 64.25-21.15 58.7-21 58.75-8.15Q58.75-7.45 58.7-6.13 58.65-4.8 58.55-3.65L58.55-3.65Q59.4-3.75 60.47-3.78 61.55-3.8 62.05-3.8L62.05-3.8 62.05 0 48.7 0 48.7-3.25Q50.09-3.25 50.72-3.8 51.34-4.35 51.52-5.38 51.7-6.4 51.7-7.7L51.7-7.7 51.7-20.9 48.05-20.85 48.05-25 51.7-25ZM78.59 0.8L78.59 0.8Q74.94 0.8 72.14-0.83 69.34-2.45 67.79-5.43 66.24-8.4 66.24-12.45L66.24-12.45Q66.24-15.95 67.79-19 69.34-22.05 72.17-23.93 74.99-25.8 78.74-25.8L78.74-25.8Q80.84-25.8 82.84-25.23 84.84-24.65 86.47-23.25 88.09-21.85 89.07-19.45 90.04-17.05 89.99-13.45L89.99-13.45 73.59-13.15Q73.59-10.45 74.27-8.3 74.94-6.15 76.49-4.9 78.04-3.65 80.64-3.65L80.64-3.65Q81.64-3.65 82.92-4 84.19-4.35 85.52-5.18 86.84-6 87.99-7.4L87.99-7.4 90.24-5.3Q88.44-2.75 86.39-1.43 84.34-0.1 82.32 0.35 80.29 0.8 78.59 0.8ZM73.89-16.65L73.89-16.65 83.09-16.65Q83.04-18.75 82.52-19.98 81.99-21.2 81.09-21.75 80.19-22.3 78.99-22.3L78.99-22.3Q76.79-22.3 75.54-20.73 74.29-19.15 73.89-16.65ZM136.29-23.8L133.04-23.8Q132.39-27.95 130.26-30.05 128.14-32.15 124.64-32.2L124.64-32.2Q122.04-32.2 120.09-31 118.14-29.8 116.86-27.8 115.59-25.8 114.96-23.25 114.34-20.7 114.34-18L114.34-18Q114.34-13.7 115.56-10.38 116.79-7.05 119.14-5.15 121.49-3.25 124.84-3.25L124.84-3.25Q127.99-3.25 131.09-4.88 134.19-6.5 136.29-9.4L136.29-9.4 138.69-7.2Q136.24-3.85 133.54-2.13 130.84-0.4 128.26 0.2 125.69 0.8 123.64 0.8L123.64 0.8Q119.79 0.8 116.64-0.58 113.49-1.95 111.21-4.38 108.94-6.8 107.71-10.03 106.49-13.25 106.49-17L106.49-17Q106.49-20.4 107.59-23.75 108.69-27.1 110.86-29.83 113.04-32.55 116.34-34.18 119.64-35.8 123.99-35.8L123.99-35.8Q125.94-35.8 128.26-35.18 130.59-34.55 132.64-33.35L132.64-33.35 132.44-35.45 136.29-35.45 136.29-23.8ZM141.19 0L141.19-3.25Q142.59-3.25 143.19-3.8 143.79-4.35 143.96-5.38 144.14-6.4 144.14-7.7L144.14-7.7 144.14-16Q144.14-16.9 144.19-18.07 144.24-19.25 144.34-20.35L144.34-20.35Q143.54-20.3 142.46-20.28 141.39-20.25 140.84-20.2L140.84-20.2 140.84-24Q143.14-24 144.74-24.25 146.34-24.5 147.26-24.85 148.19-25.2 148.54-25.5L148.54-25.5 151.24-25.5 151.24-8.05Q151.24-7.35 151.19-6.08 151.14-4.8 151.04-3.65L151.04-3.65Q151.84-3.75 152.81-3.78 153.79-3.8 154.29-3.8L154.29-3.8 154.29 0 141.19 0ZM147.44-29.45L147.44-29.45Q145.74-29.45 144.64-30.65 143.54-31.85 143.54-33.55L143.54-33.55Q143.54-35.25 144.69-36.45 145.84-37.65 147.39-37.65L147.39-37.65Q148.99-37.65 150.06-36.45 151.14-35.25 151.14-33.55L151.14-33.55Q151.14-31.85 150.14-30.65 149.14-29.45 147.44-29.45ZM157.53 0L157.53-3.25Q158.93-3.25 159.53-3.8 160.13-4.35 160.31-5.38 160.48-6.4 160.48-7.7L160.48-7.7 160.48-16.1Q160.48-17 160.53-18.13 160.58-19.25 160.68-20.35L160.68-20.35Q159.88-20.3 158.81-20.28 157.73-20.25 157.18-20.2L157.18-20.2 157.18-24 159.18-24Q161.13-24 162.76-24.5 164.38-25 164.88-25.5L164.88-25.5 167.33-25.5Q167.43-25 167.48-23.63 167.53-22.25 167.53-21.2L167.53-21.2Q168.88-22.85 170.08-23.85 171.28-24.85 172.46-25.33 173.63-25.8 174.83-25.8L174.83-25.8Q176.58-25.8 177.88-24.83 179.18-23.85 179.18-21.65L179.18-21.65Q179.18-20.9 178.83-20.08 178.48-19.25 177.73-18.7 176.98-18.15 175.68-18.15L175.68-18.15Q174.68-18.15 173.63-18.75 172.58-19.35 172.43-21.05L172.43-21.05Q171.43-21.05 170.43-20.23 169.43-19.4 168.66-18.28 167.88-17.15 167.58-16.2L167.58-16.2 167.58-8.05Q167.58-7.35 167.53-6.08 167.48-4.8 167.38-3.65L167.38-3.65Q168.18-3.75 169.16-3.78 170.13-3.8 170.63-3.8L170.63-3.8 170.63 0 157.53 0ZM192.93 0.8L192.93 0.8Q189.58 0.8 186.78-0.7 183.98-2.2 182.31-5.05 180.63-7.9 180.63-11.95L180.63-11.95Q180.63-14.8 181.58-17.3 182.53-19.8 184.26-21.7 185.98-23.6 188.36-24.7 190.73-25.8 193.63-25.8L193.63-25.8Q196.83-25.8 198.96-24.83 201.08-23.85 202.16-22.28 203.23-20.7 203.23-18.95L203.23-18.95Q203.23-17.5 202.36-16.38 201.48-15.25 199.88-15.2L199.88-15.2Q197.98-15.15 197.23-16.28 196.48-17.4 196.48-18.45L196.48-18.45Q196.48-18.9 196.63-19.53 196.78-20.15 197.08-20.65L197.08-20.65Q196.73-21.4 196.03-21.75 195.33-22.1 194.61-22.23 193.88-22.35 193.43-22.3L193.43-22.3Q191.03-22.15 189.48-19.9 187.93-17.65 187.93-13.4L187.93-13.4Q187.93-10.9 188.56-8.72 189.18-6.55 190.63-5.15 192.08-3.75 194.53-3.65L194.53-3.65Q196.63-3.6 198.63-4.65 200.63-5.7 202.03-7.5L202.03-7.5 204.33-5.25Q202.53-2.75 200.58-1.45 198.63-0.15 196.71 0.33 194.78 0.8 192.93 0.8ZM206.23 0L206.23-3.25Q207.63-3.25 208.25-3.8 208.88-4.35 209.03-5.38 209.18-6.4 209.18-7.7L209.18-7.7 209.18-28.25Q209.18-29.15 209.23-30.33 209.28-31.5 209.38-32.6L209.38-32.6Q208.58-32.55 207.5-32.52 206.43-32.5 205.88-32.45L205.88-32.45 205.88-36.25Q208.23-36.25 209.8-36.5 211.38-36.75 212.3-37.1 213.23-37.45 213.58-37.75L213.58-37.75 216.28-37.75 216.28-8.05Q216.28-7.35 216.23-6.08 216.18-4.8 216.08-3.65L216.08-3.65Q216.93-3.75 217.88-3.78 218.83-3.8 219.33-3.8L219.33-3.8 219.33 0 206.23 0ZM234.48 0.8L234.48 0.8Q230.83 0.8 228.03-0.83 225.23-2.45 223.68-5.43 222.13-8.4 222.13-12.45L222.13-12.45Q222.13-15.95 223.68-19 225.23-22.05 228.05-23.93 230.88-25.8 234.63-25.8L234.63-25.8Q236.73-25.8 238.73-25.23 240.73-24.65 242.35-23.25 243.98-21.85 244.95-19.45 245.93-17.05 245.88-13.45L245.88-13.45 229.48-13.15Q229.48-10.45 230.15-8.3 230.83-6.15 232.38-4.9 233.93-3.65 236.53-3.65L236.53-3.65Q237.53-3.65 238.8-4 240.08-4.35 241.4-5.18 242.73-6 243.88-7.4L243.88-7.4 246.13-5.3Q244.33-2.75 242.28-1.43 240.23-0.1 238.2 0.35 236.18 0.8 234.48 0.8ZM229.78-16.65L229.78-16.65 238.98-16.65Q238.93-18.75 238.4-19.98 237.88-21.2 236.98-21.75 236.08-22.3 234.88-22.3L234.88-22.3Q232.68-22.3 231.43-20.73 230.18-19.15 229.78-16.65Z" opacity="1" transform="matrix(1,0,0,1,0,0)" fill="#ffffff" class="wordmark-text-0" data-fill-palette-color="primary" id="text-0"></path></svg></g></svg></g><g transform="matrix(1,0,0,1,0,77.3520075948943)"><svg viewBox="0 0 232.20979199999996 19.579368944881885" height="19.579368944881885" width="232.20979199999996"><g transform="matrix(1,0,0,1,0,0)"><svg width="232.20979199999996" viewBox="2.5 -37.75 457.16 38.55" height="19.579368944881885" data-palette-color="#4b91f1"><path d="M22.8-12.05L19.5-12.05Q19.5-14.15 18.85-15.1 18.2-16.05 17.07-16.28 15.95-16.5 14.6-16.45L14.6-16.45 13.3-16.4 13.3-8.2Q13.3-6.85 13.25-5.65 13.2-4.45 13.1-3.8L13.1-3.8 19.8-3.8Q21.3-3.8 22.7-4.48 24.1-5.15 25-6.73 25.9-8.3 25.9-11L25.9-11 29.15-11 28.9 0 2.5 0 2.5-3.3Q3.65-3.35 4.42-3.6 5.2-3.85 5.63-4.75 6.05-5.65 6.05-7.65L6.05-7.65 6.05-26.8Q6.05-28.15 6.13-29.4 6.2-30.65 6.25-31.3L6.25-31.3Q5.45-31.25 4.25-31.23 3.05-31.2 2.5-31.15L2.5-31.15 2.5-35 27.5-35 27.8-25.3 24.5-25.3Q24.5-28.05 23.55-29.45 22.6-30.85 21.2-31.33 19.8-31.8 18.45-31.75L18.45-31.75 16.65-31.7Q15.6-31.7 14.85-31.43 14.1-31.15 13.7-30.23 13.3-29.3 13.3-27.35L13.3-27.35 13.3-19.85 19.15-19.85 18.95-24.2 22.8-24.2 22.8-12.05ZM44.5 0.8L44.5 0.8Q42.35 0.8 40.3 0.25 38.25-0.3 37.1-1.15L37.1-1.15 37.2 0.35 33.4 0.35 33.2-8.25 36.45-8.25Q36.6-6.75 37.65-5.5 38.7-4.25 40.4-3.53 42.1-2.8 44.2-2.8L44.2-2.8Q45.05-2.8 45.82-3.05 46.6-3.3 47.12-3.88 47.65-4.45 47.65-5.3L47.65-5.3Q47.65-6.25 46.97-6.85 46.3-7.45 45.02-8 43.75-8.55 41.85-9.25L41.85-9.25Q40.3-9.85 38.72-10.5 37.15-11.15 35.82-12.08 34.5-13 33.7-14.38 32.9-15.75 32.9-17.75L32.9-17.75Q32.9-19.2 33.45-20.63 34-22.05 35.15-23.23 36.3-24.4 38.07-25.1 39.85-25.8 42.3-25.8L42.3-25.8Q43.65-25.8 45.37-25.38 47.1-24.95 48.3-24.1L48.3-24.1 48.3-25.55 52.1-25.55 52.1-16.7 48.85-16.7Q48.55-18.45 47.62-19.7 46.7-20.95 45.25-21.63 43.8-22.3 42-22.3L42-22.3Q40.75-22.3 39.72-21.7 38.7-21.1 38.7-19.65L38.7-19.65Q38.7-18.5 39.5-17.82 40.3-17.15 41.7-16.7 43.1-16.25 44.8-15.65L44.8-15.65Q47.35-14.8 49.32-13.65 51.3-12.5 52.45-10.88 53.6-9.25 53.6-6.9L53.6-6.9Q53.6-4.3 52.3-2.6 51-0.9 48.92-0.05 46.85 0.8 44.5 0.8ZM67.15 0.8L67.15 0.8Q65.65 0.8 64.25 0.45 62.85 0.1 61.75-0.88 60.65-1.85 60-3.75 59.35-5.65 59.35-8.8L59.35-8.8 59.45-20.85 56.05-20.85 56.05-25Q57.6-25.05 59.05-26.05 60.5-27.05 61.52-28.65 62.55-30.25 62.9-32L62.9-32 66.6-32 66.55-25 72.9-25 72.9-21.15 66.55-21 66.5-8.7Q66.5-7.55 66.72-6.43 66.95-5.3 67.6-4.58 68.25-3.85 69.5-3.85L69.5-3.85Q70.2-3.85 71.42-4.35 72.65-4.85 74.05-6.85L74.05-6.85 76.45-4.6Q75.1-2.6 73.65-1.5 72.2-0.4 70.87 0.1 69.55 0.6 68.55 0.7 67.55 0.8 67.15 0.8ZM101.24 0L91.79 0Q91.69-0.7 91.67-1.18 91.64-1.65 91.59-2.3L91.59-2.3Q89.89-0.6 87.99 0.1 86.09 0.8 84.14 0.8L84.14 0.8Q80.94 0.8 79.14-1.1 77.34-3 77.34-5.85L77.34-5.85Q77.34-8.25 78.57-9.95 79.79-11.65 81.82-12.73 83.84-13.8 86.32-14.38 88.79-14.95 91.29-15.05L91.29-15.05 91.29-17.65Q91.29-18.95 90.97-20 90.64-21.05 89.87-21.65 89.09-22.25 87.69-22.2L87.69-22.2Q86.74-22.15 85.84-21.8 84.94-21.45 84.29-20.8L84.29-20.8Q84.69-20.35 84.79-19.83 84.89-19.3 84.89-18.9L84.89-18.9Q84.89-17.9 84.09-16.82 83.29-15.75 81.54-15.8L81.54-15.8Q80.04-15.85 79.24-16.85 78.44-17.85 78.44-19.2L78.44-19.2Q78.44-21.2 79.87-22.68 81.29-24.15 83.69-24.98 86.09-25.8 88.99-25.8L88.99-25.8Q93.39-25.8 95.82-23.53 98.24-21.25 98.24-16.25L98.24-16.25Q98.24-14.55 98.24-13.35 98.24-12.15 98.22-10.95 98.19-9.75 98.19-8.05L98.19-8.05Q98.19-7.35 98.14-6.08 98.09-4.8 97.99-3.65L97.99-3.65Q98.84-3.75 99.79-3.78 100.74-3.8 101.24-3.8L101.24-3.8 101.24 0ZM91.24-11.5L91.24-11.5Q89.84-11.35 88.59-11 87.34-10.65 86.42-10.05 85.49-9.45 84.97-8.6 84.44-7.75 84.44-6.7L84.44-6.7Q84.49-5.3 85.34-4.7 86.19-4.1 87.29-4.1L87.29-4.1Q88.44-4.1 89.44-4.6 90.44-5.1 91.24-5.9L91.24-5.9Q91.24-6.4 91.24-6.88 91.24-7.35 91.24-7.85L91.24-7.85Q91.24-8.75 91.24-9.68 91.24-10.6 91.24-11.5ZM105.19 0L105.19-28.25Q105.19-29.15 105.22-30.33 105.24-31.5 105.34-32.6L105.34-32.6Q104.54-32.55 103.47-32.52 102.39-32.5 101.84-32.45L101.84-32.45 101.84-36.25Q104.19-36.25 105.77-36.5 107.34-36.75 108.27-37.1 109.19-37.45 109.54-37.75L109.54-37.75 112.24-37.75 112.24-23.1Q113.94-24.6 115.69-25.2 117.44-25.8 118.99-25.8L118.99-25.8Q121.99-25.8 124.27-24.25 126.54-22.7 127.82-19.85 129.09-17 129.09-13.15L129.09-13.15Q129.09-9.15 127.62-5.98 126.14-2.8 123.44-1 120.74 0.8 116.94 0.8L116.94 0.8Q115.59 0.8 113.52 0.23 111.44-0.35 109.69-2.2L109.69-2.2 108.19 0 105.19 0ZM112.24-19.15L112.24-7.5Q112.24-5.8 112.79-4.8 113.34-3.8 114.19-3.35 115.04-2.9 115.89-2.85L115.89-2.85Q118.14-2.8 119.42-4.15 120.69-5.5 121.22-7.73 121.74-9.95 121.74-12.4L121.74-12.4Q121.74-14.7 121.19-16.75 120.64-18.8 119.44-20.08 118.24-21.35 116.29-21.3L116.29-21.3Q115.04-21.25 113.99-20.68 112.94-20.1 112.24-19.15L112.24-19.15ZM131.74 0L131.74-3.25Q133.14-3.25 133.76-3.8 134.39-4.35 134.54-5.38 134.69-6.4 134.69-7.7L134.69-7.7 134.69-28.25Q134.69-29.15 134.74-30.33 134.79-31.5 134.89-32.6L134.89-32.6Q134.09-32.55 133.01-32.52 131.94-32.5 131.39-32.45L131.39-32.45 131.39-36.25Q133.74-36.25 135.31-36.5 136.89-36.75 137.81-37.1 138.74-37.45 139.09-37.75L139.09-37.75 141.79-37.75 141.79-8.05Q141.79-7.35 141.74-6.08 141.69-4.8 141.59-3.65L141.59-3.65Q142.44-3.75 143.39-3.78 144.34-3.8 144.84-3.8L144.84-3.8 144.84 0 131.74 0ZM148.14 0L148.14-3.25Q149.54-3.25 150.14-3.8 150.74-4.35 150.91-5.38 151.09-6.4 151.09-7.7L151.09-7.7 151.09-16Q151.09-16.9 151.14-18.07 151.19-19.25 151.29-20.35L151.29-20.35Q150.49-20.3 149.41-20.28 148.34-20.25 147.79-20.2L147.79-20.2 147.79-24Q150.09-24 151.69-24.25 153.29-24.5 154.21-24.85 155.14-25.2 155.49-25.5L155.49-25.5 158.19-25.5 158.19-8.05Q158.19-7.35 158.14-6.08 158.09-4.8 157.99-3.65L157.99-3.65Q158.79-3.75 159.76-3.78 160.74-3.8 161.24-3.8L161.24-3.8 161.24 0 148.14 0ZM154.39-29.45L154.39-29.45Q152.69-29.45 151.59-30.65 150.49-31.85 150.49-33.55L150.49-33.55Q150.49-35.25 151.64-36.45 152.79-37.65 154.34-37.65L154.34-37.65Q155.94-37.65 157.01-36.45 158.09-35.25 158.09-33.55L158.09-33.55Q158.09-31.85 157.09-30.65 156.09-29.45 154.39-29.45ZM175.98 0.8L175.98 0.8Q173.83 0.8 171.78 0.25 169.73-0.3 168.58-1.15L168.58-1.15 168.68 0.35 164.88 0.35 164.68-8.25 167.93-8.25Q168.08-6.75 169.13-5.5 170.18-4.25 171.88-3.53 173.58-2.8 175.68-2.8L175.68-2.8Q176.53-2.8 177.31-3.05 178.08-3.3 178.61-3.88 179.13-4.45 179.13-5.3L179.13-5.3Q179.13-6.25 178.46-6.85 177.78-7.45 176.51-8 175.23-8.55 173.33-9.25L173.33-9.25Q171.78-9.85 170.21-10.5 168.63-11.15 167.31-12.08 165.98-13 165.18-14.38 164.38-15.75 164.38-17.75L164.38-17.75Q164.38-19.2 164.93-20.63 165.48-22.05 166.63-23.23 167.78-24.4 169.56-25.1 171.33-25.8 173.78-25.8L173.78-25.8Q175.13-25.8 176.86-25.38 178.58-24.95 179.78-24.1L179.78-24.1 179.78-25.55 183.58-25.55 183.58-16.7 180.33-16.7Q180.03-18.45 179.11-19.7 178.18-20.95 176.73-21.63 175.28-22.3 173.48-22.3L173.48-22.3Q172.23-22.3 171.21-21.7 170.18-21.1 170.18-19.65L170.18-19.65Q170.18-18.5 170.98-17.82 171.78-17.15 173.18-16.7 174.58-16.25 176.28-15.65L176.28-15.65Q178.83-14.8 180.81-13.65 182.78-12.5 183.93-10.88 185.08-9.25 185.08-6.9L185.08-6.9Q185.08-4.3 183.78-2.6 182.48-0.9 180.41-0.05 178.33 0.8 175.98 0.8ZM203.63 0L203.63-3.25Q205.03-3.25 205.66-3.8 206.28-4.35 206.46-5.38 206.63-6.4 206.63-7.7L206.63-7.7 206.58-14.8Q206.53-18.05 205.58-19.63 204.63-21.2 202.53-21.2L202.53-21.2Q201.28-21.2 200.06-20.65 198.83-20.1 197.98-19.35L197.98-19.35 197.98-8.05Q197.98-7.35 197.93-6.08 197.88-4.8 197.78-3.65L197.78-3.65Q198.63-3.75 199.58-3.78 200.53-3.8 201.03-3.8L201.03-3.8 201.03 0 187.93 0 187.93-3.25Q189.33-3.25 189.96-3.8 190.58-4.35 190.73-5.38 190.88-6.4 190.88-7.7L190.88-7.7 190.88-28.25Q190.88-29.15 190.93-30.33 190.98-31.5 191.08-32.6L191.08-32.6Q190.28-32.55 189.21-32.52 188.13-32.5 187.58-32.45L187.58-32.45 187.58-36.25Q189.93-36.25 191.51-36.5 193.08-36.75 194.01-37.1 194.93-37.45 195.28-37.75L195.28-37.75 197.98-37.75 197.98-23Q198.98-23.8 200.28-24.43 201.58-25.05 202.93-25.43 204.28-25.8 205.28-25.8L205.28-25.8Q209.88-25.8 211.81-23.18 213.73-20.55 213.73-14.75L213.73-14.75 213.73-8.05Q213.73-7.35 213.68-6.08 213.63-4.8 213.53-3.65L213.53-3.65Q214.33-3.75 215.28-3.78 216.23-3.8 216.78-3.8L216.78-3.8 216.78 0 203.63 0ZM231.63 0.8L231.63 0.8Q227.98 0.8 225.18-0.83 222.38-2.45 220.83-5.43 219.28-8.4 219.28-12.45L219.28-12.45Q219.28-15.95 220.83-19 222.38-22.05 225.2-23.93 228.03-25.8 231.78-25.8L231.78-25.8Q233.88-25.8 235.88-25.23 237.88-24.65 239.5-23.25 241.13-21.85 242.1-19.45 243.08-17.05 243.03-13.45L243.03-13.45 226.63-13.15Q226.63-10.45 227.3-8.3 227.98-6.15 229.53-4.9 231.08-3.65 233.68-3.65L233.68-3.65Q234.68-3.65 235.95-4 237.23-4.35 238.55-5.18 239.88-6 241.03-7.4L241.03-7.4 243.28-5.3Q241.48-2.75 239.43-1.43 237.38-0.1 235.35 0.35 233.33 0.8 231.63 0.8ZM226.93-16.65L226.93-16.65 236.13-16.65Q236.08-18.75 235.55-19.98 235.03-21.2 234.13-21.75 233.23-22.3 232.03-22.3L232.03-22.3Q229.83-22.3 228.58-20.73 227.33-19.15 226.93-16.65ZM256.33 0.8L256.33 0.8Q253.33 0.8 251.05-0.75 248.78-2.3 247.5-5.15 246.23-8 246.23-11.85L246.23-11.85Q246.23-15.9 247.78-19.05 249.33-22.2 252.13-24 254.93-25.8 258.63-25.8L258.63-25.8Q259.98-25.8 261.05-25.53 262.13-25.25 263.08-24.9L263.08-24.9 263.08-28.2Q263.08-28.9 263.13-30.2 263.18-31.5 263.28-32.6L263.28-32.6Q262.48-32.55 261.38-32.5 260.28-32.45 259.73-32.45L259.73-32.45 259.73-36.25Q262.08-36.25 263.65-36.5 265.23-36.75 266.15-37.1 267.08-37.45 267.43-37.75L267.43-37.75 270.13-37.75 270.13-8.05Q270.13-7.35 270.08-6.08 270.03-4.8 269.93-3.65L269.93-3.65Q270.78-3.75 271.73-3.78 272.68-3.8 273.18-3.8L273.18-3.8 273.18 0 263.68 0Q263.63-0.55 263.55-1.15 263.48-1.75 263.38-2.3L263.38-2.3Q261.73-0.6 259.98 0.1 258.23 0.8 256.33 0.8ZM258.93-3.75L258.93-3.75Q260.23-3.75 261.33-4.42 262.43-5.1 263.08-6.15L263.08-6.15Q263.08-6.9 263.08-7.65 263.08-8.4 263.08-9.15L263.08-9.15 263.08-21.15Q262.58-21.55 261.58-21.83 260.58-22.1 259.53-22.1L259.53-22.1Q257.23-22.05 255.93-20.65 254.63-19.25 254.1-17.1 253.58-14.95 253.58-12.6L253.58-12.6Q253.58-10.5 254.1-8.45 254.63-6.4 255.8-5.08 256.98-3.75 258.93-3.75ZM289.62 0L289.62-3.25Q291.02-3.25 291.62-3.8 292.22-4.35 292.4-5.38 292.57-6.4 292.57-7.7L292.57-7.7 292.57-16Q292.57-16.9 292.62-18.07 292.67-19.25 292.77-20.35L292.77-20.35Q291.97-20.3 290.9-20.28 289.82-20.25 289.27-20.2L289.27-20.2 289.27-24Q291.57-24 293.17-24.25 294.77-24.5 295.7-24.85 296.62-25.2 296.97-25.5L296.97-25.5 299.67-25.5 299.67-8.05Q299.67-7.35 299.62-6.08 299.57-4.8 299.47-3.65L299.47-3.65Q300.27-3.75 301.25-3.78 302.22-3.8 302.72-3.8L302.72-3.8 302.72 0 289.62 0ZM295.87-29.45L295.87-29.45Q294.17-29.45 293.07-30.65 291.97-31.85 291.97-33.55L291.97-33.55Q291.97-35.25 293.12-36.45 294.27-37.65 295.82-37.65L295.82-37.65Q297.42-37.65 298.5-36.45 299.57-35.25 299.57-33.55L299.57-33.55Q299.57-31.85 298.57-30.65 297.57-29.45 295.87-29.45ZM319.07 0L305.97 0 305.97-3.25Q307.37-3.25 307.97-3.8 308.57-4.35 308.74-5.38 308.92-6.4 308.92-7.7L308.92-7.7 308.92-16.1Q308.92-17 308.97-18.13 309.02-19.25 309.12-20.35L309.12-20.35Q308.32-20.3 307.24-20.28 306.17-20.25 305.62-20.2L305.62-20.2 305.62-24Q307.92-24 309.52-24.25 311.12-24.5 312.04-24.85 312.97-25.2 313.32-25.5L313.32-25.5 315.77-25.5Q315.87-24.85 315.87-24.55 315.87-24.25 315.89-23.98 315.92-23.7 316.07-23L316.07-23Q317.07-23.8 318.37-24.43 319.67-25.05 320.97-25.43 322.27-25.8 323.27-25.8L323.27-25.8Q327.87-25.8 329.79-23.18 331.72-20.55 331.72-14.75L331.72-14.75 331.72-8.05Q331.72-7.35 331.67-6.08 331.62-4.8 331.52-3.65L331.52-3.65Q332.37-3.75 333.32-3.78 334.27-3.8 334.77-3.8L334.77-3.8 334.77 0 321.67 0 321.67-3.25Q323.07-3.25 323.69-3.8 324.32-4.35 324.49-5.38 324.67-6.4 324.67-7.7L324.67-7.7 324.62-14.8Q324.62-18.05 323.69-19.63 322.77-21.2 320.57-21.2L320.57-21.2Q319.32-21.2 318.09-20.65 316.87-20.1 316.02-19.35L316.02-19.35Q316.02-18.65 316.02-17.93 316.02-17.2 316.02-16.5L316.02-16.5 316.02-8.05Q316.02-7.35 315.97-6.08 315.92-4.8 315.82-3.65L315.82-3.65Q316.62-3.75 317.59-3.78 318.57-3.8 319.07-3.8L319.07-3.8 319.07 0ZM372.71 0L350.81 0Q350.81-2.6 351.49-4.65 352.16-6.7 353.29-8.35 354.41-10 355.79-11.4 357.16-12.8 358.61-14.15L358.61-14.15Q362.26-17.55 363.79-20.3 365.31-23.05 365.31-25.75L365.31-25.75Q365.31-27.35 364.91-28.85 364.51-30.35 363.46-31.33 362.41-32.3 360.51-32.25L360.51-32.25Q359.16-32.25 358.09-31.63 357.01-31 356.46-30.15L356.46-30.15Q357.01-29.6 357.24-28.85 357.46-28.1 357.46-27.55L357.46-27.55Q357.46-27 357.11-26.23 356.76-25.45 356.04-24.9 355.31-24.35 354.06-24.35L354.06-24.35Q352.51-24.45 351.69-25.5 350.86-26.55 350.86-28L350.86-28Q350.86-29.15 351.56-30.48 352.26-31.8 353.66-33.02 355.06-34.25 357.09-35.02 359.11-35.8 361.76-35.8L361.76-35.8Q363.76-35.8 365.74-35.3 367.71-34.8 369.36-33.7 371.01-32.6 371.99-30.8 372.96-29 372.96-26.35L372.96-26.35Q372.96-25.1 372.51-23.73 372.06-22.35 370.86-20.73 369.66-19.1 367.51-17 365.36-14.9 361.96-12.1L361.96-12.1Q359.21-9.85 357.91-8 356.61-6.15 356.36-5.15L356.36-5.15 366.16-4.9Q367.31-4.85 368.14-5.08 368.96-5.3 369.44-6.03 369.91-6.75 369.91-8.15L369.91-8.15 373.11-8.15 372.71 0ZM391.41 0.8L391.41 0.8Q387.61 0.8 384.96-0.83 382.31-2.45 380.71-5.13 379.11-7.8 378.39-11 377.66-14.2 377.66-17.35L377.66-17.35Q377.66-20.5 378.54-23.75 379.41-27 381.16-29.73 382.91-32.45 385.51-34.13 388.11-35.8 391.61-35.8L391.61-35.8Q395.26-35.8 397.84-34.15 400.41-32.5 402.01-29.83 403.61-27.15 404.36-23.95 405.11-20.75 405.11-17.6L405.11-17.6Q405.11-14.5 404.29-11.25 403.46-8 401.76-5.28 400.06-2.55 397.49-0.88 394.91 0.8 391.41 0.8ZM391.71-2.75L391.71-2.75Q393.46-2.75 394.61-3.85 395.76-4.95 396.39-6.88 397.01-8.8 397.26-11.3 397.51-13.8 397.51-16.55L397.51-16.55Q397.51-19.6 397.29-22.43 397.06-25.25 396.44-27.48 395.81-29.7 394.64-31 393.46-32.3 391.51-32.3L391.51-32.3Q389.71-32.3 388.51-31.2 387.31-30.1 386.59-28.15 385.86-26.2 385.56-23.7 385.26-21.2 385.26-18.4L385.26-18.4Q385.26-16.3 385.39-14.1 385.51-11.9 385.89-9.88 386.26-7.85 386.96-6.25 387.66-4.65 388.84-3.7 390.01-2.75 391.71-2.75ZM431.16 0L409.26 0Q409.26-2.6 409.93-4.65 410.61-6.7 411.73-8.35 412.86-10 414.23-11.4 415.61-12.8 417.06-14.15L417.06-14.15Q420.71-17.55 422.23-20.3 423.76-23.05 423.76-25.75L423.76-25.75Q423.76-27.35 423.36-28.85 422.96-30.35 421.91-31.33 420.86-32.3 418.96-32.25L418.96-32.25Q417.61-32.25 416.53-31.63 415.46-31 414.91-30.15L414.91-30.15Q415.46-29.6 415.68-28.85 415.91-28.1 415.91-27.55L415.91-27.55Q415.91-27 415.56-26.23 415.21-25.45 414.48-24.9 413.76-24.35 412.51-24.35L412.51-24.35Q410.96-24.45 410.13-25.5 409.31-26.55 409.31-28L409.31-28Q409.31-29.15 410.01-30.48 410.71-31.8 412.11-33.02 413.51-34.25 415.53-35.02 417.56-35.8 420.21-35.8L420.21-35.8Q422.21-35.8 424.18-35.3 426.16-34.8 427.81-33.7 429.46-32.6 430.43-30.8 431.41-29 431.41-26.35L431.41-26.35Q431.41-25.1 430.96-23.73 430.51-22.35 429.31-20.73 428.11-19.1 425.96-17 423.81-14.9 420.41-12.1L420.41-12.1Q417.66-9.85 416.36-8 415.06-6.15 414.81-5.15L414.81-5.15 424.61-4.9Q425.76-4.85 426.58-5.08 427.41-5.3 427.88-6.03 428.36-6.75 428.36-8.15L428.36-8.15 431.56-8.15 431.16 0ZM454.76-9.05L454.76-8.2Q454.76-6.85 454.71-5.6 454.66-4.35 454.56-3.7L454.56-3.7Q455.41-3.8 456.61-3.83 457.81-3.85 458.31-3.85L458.31-3.85 458.31 0 444.06 0 444.06-3.3 444.36-3.3Q445.51-3.3 446.33-3.55 447.16-3.8 447.63-4.73 448.11-5.65 448.11-7.65L448.11-7.65 448.11-9.05 434.56-9.05 434.56-13.75 451.71-35.8 454.76-35.8 454.76-13.55 459.66-13.55 459.66-9.05 454.76-9.05ZM448.16-25.3L448.06-25.3 439.21-13.7 448.11-13.65 448.16-25.3Z" opacity="1" transform="matrix(1,0,0,1,0,0)" fill="#ffffff" class="slogan-text-1" data-fill-palette-color="secondary" id="text-1"></path></svg></g></svg></g></svg></g></svg></g><g><svg viewBox="0 0 133.94536486332734 133.9591623779707" height="133.9591623779707" width="133.94536486332734"><g><svg xmlns="http://www.w3.org/2000/svg" xmlns:xlink="http://www.w3.org/1999/xlink" version="1.1" x="0" y="0" viewBox="2.0024719 2 47.9950561 48" style="enable-background:new 0 0 52 52;" xml:space="preserve" height="133.9591623779707" width="133.94536486332734" class="icon-icon-0" data-fill-palette-color="accent" id="icon-0"><g fill="#1ebbd7" data-fill-palette-color="accent"><path d="M16.99 31.475l1.768-5.224c0.401-1.188 1.517-2.009 2.775-2.038 0 0 0.001 0 0.002 0 1.299 0 2.422 0.771 2.864 1.918l0.252 0.651 1.757-5.349c0.408-1.237 1.532-2.067 2.8-2.067h0.108l0.095 0.008c1.313 0.067 2.445 0.999 2.76 2.279l2.719 11.033h9.168c3.217-4.214 5.94-8.833 5.94-14.976C49.998 9.05 44.248 2 37.178 2c-3.93 0-8.39 4.81-10.08 6.82C25.408 6.81 20.948 2 17.017 2 9.948 2 4.188 9.05 4.188 17.71c0 5.561 2.232 9.872 5.041 13.765H16.99z" fill="#ffffff" data-fill-palette-color="accent"></path><path d="M29.626 36.402l-0.78-3.167-1.113 3.388c-0.394 1.199-1.507 2.027-2.769 2.062-0.001 0-0.001 0-0.002 0-1.311 0-2.434-0.77-2.877-1.915l-0.324-0.834c-0.522 0.938-1.519 1.539-2.62 1.539h-5.171c6.305 7.84 12.208 12.155 12.458 12.335C26.608 49.94 26.808 50 27.017 50c0.2 0 0.4-0.06 0.57-0.18 0.246-0.17 5.698-4.055 11.64-11.134h-6.687C31.154 38.686 29.956 37.747 29.626 36.402z" fill="#ffffff" data-fill-palette-color="accent"></path><path d="M46.761 34.686H33.323l-3.094-12.556c-0.106-0.433-0.487-0.743-0.933-0.759-0.438-0.048-0.849 0.263-0.988 0.686l-3.503 10.661-2.272-5.867c-0.151-0.393-0.549-0.649-0.954-0.639-0.421 0.01-0.791 0.28-0.926 0.68l-2.229 6.583H3.002c-0.553 0-1 0.447-1 1s0.447 1 1 1h16.139c0.429 0 0.81-0.273 0.947-0.68l1.576-4.651 2.286 5.903c0.149 0.386 0.521 0.639 0.932 0.639 0.009 0 0.018 0 0.027 0 0.422-0.012 0.792-0.286 0.924-0.687l3.288-10.007 2.448 9.933c0.109 0.446 0.511 0.761 0.971 0.761H46.761c0.553 0 1-0.447 1-1S47.314 34.686 46.761 34.686z" fill="#ffffff" data-fill-palette-color="accent"></path></g></svg></g></svg></g></svg></g><defs></defs></svg><rect width="395.52" height="93.83338146342246" fill="none" stroke="none" visibility="hidden"></rect></g></svg></g></svg>